<?xml version="1.0" encoding="UTF-8"?>
<svg width="128px" height="128px" viewBox="0 0 128 128" version="1.1" xmlns="http://www.w3.org/2000/svg" xmlns:xlink="http://www.w3.org/1999/xlink">
    <title>Group</title>
    <g id="Page-2" stroke="none" stroke-width="1" fill="none" fill-rule="evenodd">
        <g id="Group" fill="#FFFFFF">
            <path d="M64.5252106,8.37318497 C68.7523949,8.37318497 72.8689863,8.85289043 76.8249715,9.75876596 C77.6103923,9.93839135 78.2718364,9.16494553 77.9717563,8.41756301 C77.1201206,6.29516569 75.2435636,4.36155114 73.1556825,2.74140052 C68.4431574,-0.913800172 60.6065593,-0.913800172 55.8947386,2.74140052 C53.8061532,4.36155114 51.9295961,6.29516569 51.0779604,8.41756301 C50.7778803,9.16494553 51.4393244,9.93839135 52.2254497,9.75876596 C56.1814349,8.85289043 60.2980263,8.37318497 64.5252106,8.37318497" id="Fill-1"></path>
            <path d="M63.4747894,118.883518 C59.2476051,118.883518 55.1310137,118.403813 51.1750285,117.497937 C50.3889033,117.318312 49.7274592,118.091758 50.0275393,118.83914 C50.879175,120.961537 52.755732,122.895152 54.8443175,124.515303 C59.5561382,128.170503 67.3927363,128.170503 72.1052614,124.515303 C74.1931424,122.895152 76.0696995,120.962242 76.9213352,118.83914 C77.2214153,118.091758 76.5599712,117.318312 75.7745503,117.497937 C71.8185651,118.403813 67.7019737,118.883518 63.4747894,118.883518" id="Fill-3"></path>
            <path d="M8.4172108,77.2287412 C9.16529774,77.5288212 9.93803914,76.8673771 9.75841375,76.0819563 C8.85253823,72.1252667 8.37283276,68.0086753 8.37283276,63.781491 C8.37283276,59.5543067 8.85253823,55.4377153 9.75841375,51.4810257 C9.93803914,50.6956048 9.16529774,50.0348652 8.41791521,50.3342408 C6.2955179,51.1858765 4.36260776,53.0617292 2.74245714,55.1503146 C-0.914152379,59.8628397 -0.914152379,67.7008467 2.74245714,72.4133717 C4.36190335,74.5012528 6.29481348,76.3771055 8.4172108,77.2287412" id="Fill-5"></path>
            <path d="M119.626815,63.4749303 C119.626815,67.7021146 119.14711,71.818706 118.241234,75.7746912 C118.061609,76.560112 118.835054,77.2222606 119.582437,76.9221805 C121.704834,76.0698404 123.638449,74.1939877 125.258599,72.1054022 C128.9138,67.3928772 128.9138,59.5569835 125.258599,54.8444584 C123.638449,52.7558729 121.705539,50.8800203 119.582437,50.0276801 C118.835054,49.7276001 118.061609,50.3897486 118.241234,51.1751694 C119.14711,55.1311546 119.626815,59.247746 119.626815,63.4749303" id="Fill-7"></path>
            <path d="M107.167998,17.912984 L104.392609,14.6142165 C103.961508,14.102108 103.196515,14.0351887 102.682998,14.4662897 L101.536213,15.4278139 C96.3601841,11.3379902 90.61992,8.14347578 84.5056125,5.92457384 C83.8610743,5.69000421 83.1777934,6.1654832 83.1749757,6.85158177 L83.1524345,11.9360371 C83.1510257,12.3438924 83.400388,12.7080741 83.7793623,12.8595229 C88.255909,14.650846 92.4429417,17.0162659 96.2502957,19.8635045 L91.1679536,24.1273183 C89.3230951,22.8347199 87.3845497,21.6668026 85.3642923,20.6376547 C84.8162587,20.3587071 84.1456573,20.5587605 83.8498037,21.0976366 L81.7048651,24.9972687 C81.3970365,25.5572773 81.6132914,26.2616906 82.1831618,26.5490913 C83.4320866,27.1795412 84.6443819,27.8719795 85.8165256,28.6207708 C85.3213231,29.0553939 85.261448,29.8077073 85.6883224,30.3141804 L88.4686418,33.6087215 C88.9004471,34.1201256 89.6640312,34.185636 90.1768441,33.7559439 L107.019366,19.6247084 C107.533588,19.1936074 107.600507,18.4265013 107.167998,17.912984" id="Fill-9"></path>
            <path d="M121.377846,42.8747151 C119.837294,38.601744 117.821967,34.509807 115.357225,30.6644147 L115.905259,30.2192255 C116.503306,29.7345892 116.594879,28.8568902 116.110243,28.2588433 L113.625073,25.1890101 C113.139732,24.5902587 112.260624,24.4979806 111.661873,24.9840258 L95.0940716,38.4326848 C94.4967292,38.9180256 94.4051554,39.7957245 94.8890874,40.3937714 L97.374962,43.4629003 C97.8603027,44.062356 98.7394105,44.1546341 99.3381619,43.6685889 L99.7664452,43.3206088 C103.191303,49.3679971 105.150276,56.3494374 105.150276,63.7817023 C105.150276,65.1447421 105.084061,66.4922847 104.955154,67.8215127 C104.892461,68.4723906 105.355965,69.054236 106.004025,69.1401744 L110.251637,69.703705 C110.932805,69.79387 111.554802,69.3028939 111.62313,68.6189085 C111.781623,67.0276389 111.863335,65.413828 111.863335,63.7817023 C111.863335,54.7454883 109.371121,46.2826668 105.041092,39.0391846 L110.081874,34.9472477 C111.960544,37.9712941 113.552518,41.1911673 114.821167,44.5688292 C115.009245,45.0703714 115.531215,45.3641118 116.056003,45.2542233 L120.584676,44.3039698 C121.229214,44.1687224 121.601145,43.4938944 121.377846,42.8747151" id="Fill-11"></path>
            <path d="M106.076439,98.2458986 C100.201632,105.493607 92.5171869,111.214852 83.7190646,114.724239 C83.3527696,114.870053 83.085797,115.190561 83.0132424,115.577988 L82.0651021,120.679349 C81.9052003,121.540142 82.7321815,122.261462 83.5598672,121.976879 C92.280504,118.975374 100.273482,114.007146 106.986541,107.293383 C108.593308,105.686616 110.098639,104.004477 111.502535,102.258237 C111.920956,101.736971 111.818112,100.971978 111.270078,100.588073 L107.622626,98.0359834 C107.130945,97.6929341 106.454004,97.7802814 106.076439,98.2458986" id="Fill-13"></path>
            <path d="M40.4966158,94.0573866 L44.3969523,93.9101642 C45.9699072,93.8502891 46.6862956,91.9187877 45.5317622,90.8487839 L38.3319537,84.1730589 C37.1774203,83.1030551 35.3057941,83.9624394 35.3649648,85.5353943 L35.5171181,89.5554811 L33.5503961,91.7229608 C33.2932852,92.006135 32.8459828,92.0103615 32.5888719,91.7264829 C29.6662611,88.4995655 27.2388528,84.8161883 25.4327371,80.7939883 C25.0347435,79.9071319 24.0774458,79.4133382 23.1278967,79.6239578 L7.45399603,83.1100993 C6.23888306,83.380594 5.54926243,84.6682615 5.99445164,85.8312479 C9.04315247,93.7883007 13.7570864,101.087431 19.9629677,107.293313 C24.5585601,111.888905 29.7557216,115.663152 35.3734178,118.552655 L33.98995,121.771824 C33.7884878,122.23885 34.0054471,122.780544 34.473882,122.979893 L39.1251231,124.960703 C39.59708,125.161461 40.1430003,124.936753 40.3360096,124.461978 L43.6650669,116.283035 C43.9306307,115.630749 43.61928,114.886184 42.9669933,114.622029 C30.8172724,109.701702 20.8209431,100.545738 14.8130019,88.9961769 C14.6516913,88.686235 14.8277946,88.3065563 15.1673218,88.2248443 L20.5504484,86.935768 C20.785018,86.8794149 21.0266318,86.9871901 21.1442688,87.1985141 C23.9710794,92.2886047 27.6917906,96.8158691 32.0894429,100.57321 C32.8748637,101.244516 34.0561649,101.157873 34.7507164,100.392176 L40.4966158,94.0573866 Z" id="Fill-15"></path>
            <path d="M103.030133,84.9032538 L101.955198,81.7819984 L105.076454,80.7077681 L106.151388,83.8283191 L103.030133,84.9032538 Z M121.053252,90.9950201 L119.461982,86.0993476 C119.185148,85.2470075 118.270819,84.7813903 117.418479,85.0575203 L113.348379,86.3804085 L110.596236,84.7799815 L108.081481,77.4759198 C107.849729,76.8039095 107.221392,76.3819659 106.547973,76.3819659 C106.373279,76.3819659 106.195062,76.4101425 106.020367,76.470722 L99.9180349,78.5719869 L96.545304,76.6109002 L94.8406237,71.9272561 C94.5342039,71.0854822 93.603674,70.6515636 92.7619,70.9579834 L87.9246938,72.7190167 C87.0829199,73.0247321 86.6490013,73.9552621 86.9554211,74.797036 L88.71575,79.6342422 C89.0221698,80.4760161 89.9526997,80.9099347 90.7944737,80.6035149 L94.4475611,79.274287 L97.479356,81.0367291 C97.4871046,81.0634968 97.4934443,81.0909689 97.5026017,81.118441 L99.0170903,85.5160934 C92.632288,95.9181648 81.8153171,103.320844 69.2126585,105.063563 L69.2126585,104.379578 C69.2126585,103.568093 68.5547365,102.910171 67.7432524,102.910171 L59.493868,102.910171 C58.6823839,102.910171 58.0244619,103.568093 58.0244619,104.379578 L58.0244619,105.098784 C53.1766894,104.461994 48.5881411,102.992588 44.4095613,100.833561 C43.7755893,100.506009 42.997917,100.753962 42.6724781,101.388639 L40.7888769,105.064267 C40.4641423,105.69683 40.7135046,106.473094 41.3453634,106.799237 C46.4467246,109.435856 52.0735782,111.188437 58.0244619,111.860447 L58.0244619,112.628962 C58.0244619,113.440446 58.6823839,114.098368 59.493868,114.098368 L67.7432524,114.098368 C68.5547365,114.098368 69.2126585,113.440446 69.2126585,112.628962 L69.2126585,111.831566 C84.3814948,110.031086 97.4201853,101.185768 104.957408,88.6690474 L108.505538,87.4475947 L111.676102,89.2910443 L113.072249,93.5879655 C113.349084,94.4396012 114.264116,94.9059229 115.115752,94.6290884 L120.011425,93.0385232 C120.863765,92.7616887 121.329382,91.8466558 121.053252,90.9950201 L121.053252,90.9950201 Z" id="Fill-17"></path>
            <path d="M12.198431,37.9218442 C13.128961,39.7420482 11.2277495,41.6432598 9.40754548,40.7120254 C9.01941374,40.5133808 8.69820127,40.1921684 8.49955671,39.8040366 C7.56832231,37.9838326 9.47094268,36.0819167 11.2911467,37.0138555 C11.678574,37.2125 11.9997865,37.5337125 12.198431,37.9218442 M8.60310547,32.0780314 C6.74697639,32.5542148 5.08244773,33.7890513 4.11669707,35.6670172 C2.54726421,38.7178313 3.47638537,42.5357515 6.26727092,44.53065 C9.58012674,46.8981831 14.1496559,45.9549737 16.2741665,42.5547706 C17.2279421,41.0290114 17.5202736,39.2778399 17.2293509,37.6358524 C16.9229311,35.9065177 17.3533277,34.1433712 18.3507769,32.6979151 C18.7114365,32.1759448 19.0136298,31.6067789 19.4581146,31.1517279 C21.3698924,29.1913456 24.1473941,31.3884108 27.1982081,31.8800912 C27.2151141,31.8829089 26.0338129,33.1628279 26.0232467,33.1762117 C19.191142,41.5206919 15.0858212,52.1805786 15.0858212,63.7815614 C15.0858212,65.4284798 15.1696464,67.0563789 15.330957,68.6617369 C15.3957631,69.3020486 15.9726776,69.7648481 16.610876,69.6810229 L21.0169813,69.1055173 C21.6234812,69.026623 22.0588086,68.4821115 21.9996379,67.8742028 C21.8672082,66.5273645 21.7988801,65.1622115 21.7988801,63.7815614 C21.7988801,40.8014859 40.4947139,22.1056521 63.4747894,22.1056521 C66.0170171,22.1056521 68.5071182,22.3359952 70.9246646,22.7748447 L70.9162117,25.0078349 C70.9155073,25.3008709 71.1064033,25.560095 71.3874642,25.645329 L75.0778855,26.7660506 C75.8090666,26.9886452 76.5479961,26.4406116 76.5479961,25.6756188 L76.5451785,18.1151507 C76.5451785,17.5678215 76.179588,17.0838896 75.6505736,16.9458246 C71.75869,15.9335826 67.6787281,15.3932976 63.4747894,15.3932976 C53.3805466,15.3932976 44.0012834,18.502578 36.2379442,23.8110367 C33.9774819,25.357224 31.1344698,25.7826896 28.5288449,24.9395069 L25.7541609,24.0413799 L27.0270357,22.8727582 C31.7860521,18.6279636 37.2854068,15.1974707 43.3074362,12.8059875 C43.6131516,12.6848284 43.8357462,12.4157425 43.8920993,12.091008 L44.8585544,6.57052085 C44.9825311,5.86188106 44.3013634,5.27721801 43.6209002,5.50826557 C34.8100984,8.50131775 26.7354086,13.4977214 19.963179,20.269951 C17.1110095,23.1221205 14.575826,26.2067464 12.3724211,29.4794507 C11.4883824,30.7917727 10.1352044,31.6842643 8.60310547,32.0780314" id="Fill-19"></path>
        </g>
    </g>
</svg>